<?xml version="1.0" encoding="UTF-8"?>
<svg xmlns="http://www.w3.org/2000/svg" xmlns:xlink="http://www.w3.org/1999/xlink" width="600" height="400" version="1.1">
 <defs>
  <radialGradient id="a" cx="266" cy="234" r="261" gradientTransform="matrix(-1.31 -1.02 1.02 -1.31 468 836)" gradientUnits="userSpaceOnUse">
   <stop stop-color="#fff" offset="0"/>
   <stop offset="1"/>
  </radialGradient>
 </defs>
 <circle cx="405" cy="462" r="232" fill="url(#a)" stroke="#000"/>
 <path d="m417 163c1.33 1.5 2.38 3.52 2.07 5.58 0.611 3.59 0.499 7.27 0.823 10.9 1.7 6.08-1.77 11.9-2.13 17.9-0.206 4.04-3.86 6.67-3.89 10.8-1.37 3.76-0.592 7.67 0.16 11.4 0.713 5.7-2.03 11.1-2.09 16.7 0.878 2.92 5.07 7.63 0.374 9.18l-0.742 0.0598-0.618-0.126c-2.09-1.82-2.15-4.7-3.62-6.75 0.786-3.49 0.881-7.17-0.049-10.7 0.079-3.8-2.01-7.41-0.898-11.2-0.065-3.38-1.11-6.91-0.904-10.4 0.058-1.76-0.772-7.29-1.7-6.51-1.03 4.32 0.093 8.86-1.17 13.1 1.3 3.18 1.12 6.61 0.364 9.89-0.912 3.93-0.855 7.94-0.339 11.9 1.98 4.76-4.51 3.38-5.35 7.17-2.33 1.99-7.43 1.31-5.25-2.68 2.8-1.89 6.95-4.32 5.44-8.53-0.886-5.29-2.54-10.6-1.57-16-0.674-3.75-1.81-7.43-1.92-11.3 0.199-4.16-1.27-8.43-0.09-12.5 0.911-3.62 0.771-7.47 2.08-11-0.394-2.54-0.631-5.88-1.48-7.92-2.73 2.2-6.63 3.91-10.2 2.85-2.16-3.47-1.13-8.37-0.67-12.3 0.663-1.66 0.542-3.28 0.294-4.9-0.329-0.921-0.64-2.76-0.64-3.91-2e-4 -0.477-0.067-1.39-0.148-2.04-0.13-1.03-0.116-1.26 0.102-1.92 0.278-0.832 0.664-1.03 1.15-0.6 0.31 0.28 0.268 0.32 0.706-0.651 0.269-0.596 0.436-0.797 0.721-0.869 0.278-0.0697 0.42-0.0287 0.569 0.165 0.109 0.142 0.225 0.196 0.258 0.122 0.388-0.888 0.545-1.09 0.863-1.09 0.283 0 0.346 0.073 0.381 0.441 0.042 0.429 0.32 0.599 0.502 0.305 0.176-0.286 0.498-0.115 0.703 0.373 0.178 0.425 0.197 0.85 0.118 2.56-0.09 1.96 0.03 3.18 0.312 3.18 0.056 0 0.344-0.246 0.637-0.546 0.877-0.897 2.4-1.09 2.6-0.321 0.074 0.291-0.032 0.456-0.687 1.08-0.531 0.505-0.901 1.02-1.18 1.63-0.225 0.494-0.688 1.2-1.03 1.56-0.155 0.166-0.292 0.334-0.361 0.514-0.992 2.18-1.42 4.6-1.09 7.09 1 4.85 4.41-3.21 7.14-2.99 2.68-0.204 5.55-1.84 6.27-4.09 0.118-0.837 0.083-1.15-0.148-1.81-0.155-0.44-0.37-0.898-0.476-1.02-0.218-0.247-0.9-1.9-0.905-2.2 0-0.166-0.292-1.02-0.838-2.48-0.114-0.303-0.083-0.563 0.144-1.26 0.158-0.482 0.288-1.1 0.289-1.38 7e-4 -0.646 0.396-1.3 0.922-1.51 0.244-0.101 0.58-0.442 0.827-0.839 0.432-0.695 0.831-0.938 1.54-0.938 0.233 0 0.746-0.205 1.18-0.473 1.61-0.989 3.11-0.853 4.19 0.378 0.222 0.254 0.559 0.5 0.746 0.547 0.566 0.142 1.03 0.603 1.29 1.28 0.134 0.354 0.476 1.06 0.758 1.58 0.751 1.37 0.862 1.88 0.571 2.65-0.13 0.344-0.328 0.765-0.439 0.938-0.111 0.172-0.195 0.508-0.188 0.747 0.023 0.654-0.22 1.27-0.604 1.52-0.621 0.406-1.41 2.57-1.41 3.87 0.293 1.87 5.19 4.42 7.71 5.73zm-2.29 29.8c0.69-4.06 0.144-8.21 0.058-12.3-1.44-4.78-2.2 1.52-1.36 3.4 0.09 3.12 0.397 6.48 0.969 9.46l0.33-0.569" fill="#41b5e1" stroke-width=".18"/>
 <path id="b" d="m401 42.1 3.94-10.8 3.94 10.8c-2.54-1.63-5.62-1.6-7.89 0z" stroke="#000" stroke-linejoin="round"/>
 <g fill="#f00" stroke="#000" stroke-linecap="round">
  <path d="m405 151-237 212"/>
  <path d="m405 151h-369"/>
  <path d="m405 288-1e-5 -253"/>
 </g>
 <use transform="rotate(-90 278 278)" xlink:href="#b"/>
 <use transform="rotate(228 360 253)" xlink:href="#b"/>
 <use transform="matrix(1 0 0 -1 -.003 325)" xlink:href="#b"/>
 <g font-family="'DejaVu Sans'" font-size="18px">
  <switch transform="translate(413,51)">
   <text systemLanguage="af" >Senit</text>
   <text systemLanguage="an" >Zenit</text>
   <text systemLanguage="ar" >السمت</text>
   <text systemLanguage="ast">Cénit</text>
   <text systemLanguage="az" >Zenit</text>
   <text systemLanguage="be" >Зеніт</text>
   <text systemLanguage="be-x-old">Зэніт</text>
   <text systemLanguage="bg" >Зенит</text>
   <text systemLanguage="bn" >সুবিন্দু</text>
   <text systemLanguage="bxr">Огторгойн орой</text>
   <text systemLanguage="ca" >Zenit</text>
   <text systemLanguage="cs" >Zenit</text>
   <text systemLanguage="da" >Zenit</text>
   <text systemLanguage="de" >Zenit</text>
   <text systemLanguage="dsb">Cenit</text>
   <text systemLanguage="el" >Ζενίθ</text>
   <text systemLanguage="en" >Zenith</text>
   <text systemLanguage="eo" >Zenito</text>
   <text systemLanguage="es" >Cenit</text>
   <text systemLanguage="et" >Seniit</text>
   <text systemLanguage="eu" >Zenit</text>
   <text systemLanguage="ext">Zeni</text>
   <text systemLanguage="fa" >سمت‌الرأس</text>
   <text systemLanguage="fi" >Zeniitti</text>
   <text systemLanguage="fr" >Zénith</text>
   <text systemLanguage="ga" >Forar</text>
   <text systemLanguage="gd" >Druim an t-saoghail</text>
   <text systemLanguage="gl" >Cénit</text>
   <text systemLanguage="he" >זֵנִיט</text>
   <text systemLanguage="hi" >शिरोबिंदु</text>
   <text systemLanguage="hr" >Zenit</text>
   <text systemLanguage="hsb">Cenit</text>
   <text systemLanguage="hu" >Zenit</text>
   <text systemLanguage="hy" >Զենիթ</text>
   <text systemLanguage="id" >Zenit</text>
   <text systemLanguage="io" >Zenito</text>
   <text systemLanguage="is" >Hvirfilpunktur</text>
   <text systemLanguage="it" >Zenit</text>
   <text systemLanguage="ja" >天頂</text>
   <text systemLanguage="ka" >ზენიტი</text>
   <text systemLanguage="ko" >천정</text>
   <text systemLanguage="ky" >Зенит</text>
   <text systemLanguage="la" >Zenith</text>
   <text systemLanguage="lb" >Zenit</text>
   <text systemLanguage="lmo">Zenit</text>
   <text systemLanguage="lt" >Zenitas</text>
   <text systemLanguage="lv" >Zenīts</text>
   <text systemLanguage="mk" >Зенит</text>
   <text systemLanguage="ml" >ശീർഷബിന്ദു</text>
   <text systemLanguage="ms" >Zenit</text>
   <text systemLanguage="nl" >Zenit</text>
   <text systemLanguage="nn" >Senit</text>
   <text systemLanguage="no" >Senit</text>
   <text systemLanguage="oc" >Zenit</text>
   <text systemLanguage="pl" >Zenit</text>
   <text systemLanguage="pt" >Zênite</text>
   <text systemLanguage="ro" >Zenit</text>
   <text systemLanguage="ru" >Зенит</text>
   <text systemLanguage="rue">Зенит</text>
   <text systemLanguage="sco">Zenith</text>
   <text systemLanguage="sh" >Zenit</text>
   <text systemLanguage="sk" >Zenit</text>
   <text systemLanguage="sl" >Nadglavišče</text>
   <text systemLanguage="sr" >Зенит</text>
   <text systemLanguage="sv" >Zenit</text>
   <text systemLanguage="ta" >வான் உச்சி</text>
   <text systemLanguage="th" >จุดจอมฟ้า</text>
   <text systemLanguage="tl" >Taluktok</text>
   <text systemLanguage="tr" >Zenit</text>
   <text systemLanguage="tt" >Zenit</text>
   <text systemLanguage="uk" >Зеніт</text>
   <text systemLanguage="ur" >سمت الراس</text>
   <text systemLanguage="uz" >Zenit</text>
   <text systemLanguage="vi" >Thiên đỉnh</text>
   <text systemLanguage="war">Hangaran</text>
   <text systemLanguage="wuu">天顶</text>
   <text systemLanguage="xmf">ზენიტი</text>
   <text systemLanguage="zh" >天頂</text>
   <text systemLanguage="zh-yue">天頂</text>
   <text                     >Zenith</text>
  </switch>
  <switch transform="translate(419,291)">
   <text systemLanguage="af" >Nadir</text>
   <text systemLanguage="ar" >النظير</text>
   <text systemLanguage="ast">Nadir</text>
   <text systemLanguage="be" >Надзір</text>
   <text systemLanguage="bg" >Надир</text>
   <text systemLanguage="bn" >কুবিন্দু</text>
   <text systemLanguage="bxr">Огторгойн доодо</text>
   <text systemLanguage="ca" >Nadir</text>
   <text systemLanguage="cs" >Nadir</text>
   <text systemLanguage="da" >Nadir</text>
   <text systemLanguage="de" >Nadir</text>
   <text systemLanguage="dsb">Nadir</text>
   <text systemLanguage="el" >Ναδίρ</text>
   <text systemLanguage="en" >Nadir</text>
   <text systemLanguage="eo" >Nadiro</text>
   <text systemLanguage="es" >Nadir</text>
   <text systemLanguage="et" >Nadiir</text>
   <text systemLanguage="eu" >Nadir</text>
   <text systemLanguage="ext">Nadil</text>
   <text systemLanguage="fa" >پاسو</text>
   <text systemLanguage="fi" >Nadiiri</text>
   <text systemLanguage="fr" >Nadir</text>
   <text systemLanguage="ga" >Nadair</text>
   <text systemLanguage="gl" >Nadir</text>
   <text systemLanguage="he" >נָדִיר</text>
   <text systemLanguage="hi" >अधोबिंदु</text>
   <text systemLanguage="hr" >Nadir</text>
   <text systemLanguage="hsb">Nadir</text>
   <text systemLanguage="hu" >Nadír</text>
   <text systemLanguage="hy" >Նադիր</text>
   <text systemLanguage="io" >Nadiro</text>
   <text systemLanguage="is" >Ilpunktur</text>
   <text systemLanguage="it" >Nadir</text>
   <text systemLanguage="ja" >天底</text>
   <text systemLanguage="ka" >ნადირი</text>
   <text systemLanguage="ko" >천저</text>
   <text systemLanguage="ky" >Надир</text>
   <text systemLanguage="la" >Nadir</text>
   <text systemLanguage="lb" >Nadir</text>
   <text systemLanguage="lmo">Nadir</text>
   <text systemLanguage="lt" >Nadyras</text>
   <text systemLanguage="lv" >Nadīrs</text>
   <text systemLanguage="mk" >Надир</text>
   <text systemLanguage="nl" >Nadir</text>
   <text systemLanguage="nn" >Nadir</text>
   <text systemLanguage="no" >Nadir</text>
   <text systemLanguage="oc" >Nadir</text>
   <text systemLanguage="pl" >Nadir</text>
   <text systemLanguage="pt" >Nadir</text>
   <text systemLanguage="ro" >Nadir</text>
   <text systemLanguage="ru" >Надир</text>
   <text systemLanguage="rue">Надир</text>
   <text systemLanguage="sco">Nadir</text>
   <text systemLanguage="sh" >Nadir</text>
   <text systemLanguage="sk" >Nadir</text>
   <text systemLanguage="sl" >Podnožišče</text>
   <text systemLanguage="sr" >Надир</text>
   <text systemLanguage="sv" >Nadir</text>
   <text systemLanguage="th" >จุดจอมดิน</text>
   <text systemLanguage="tl" >Nadir</text>
   <text systemLanguage="tr" >Nadir</text>
   <text systemLanguage="tt" >Nadir</text>
   <text systemLanguage="uk" >Надир</text>
   <text systemLanguage="ur" >نادر</text>
   <text systemLanguage="vi" >Thiên để</text>
   <text systemLanguage="war">Tamuran</text>
   <text systemLanguage="wuu">天底</text>
   <text systemLanguage="xmf">ნადირი</text>
   <text systemLanguage="zh" >天底</text>
   <text                     >Nadir</text>
  </switch>
  <switch transform="translate(43,140)">
   <text systemLanguage="ar" >الأفق الفلكي</text>
   <text systemLanguage="bn" >জ্যোতির্বৈজ্ঞানিক দিগন্ত</text>
   <text systemLanguage="bxr">Үнэнэй тэнгэриин хаяа</text>
   <text systemLanguage="cs" >Astronomický obzor</text>
   <text systemLanguage="dsb">Astronomiski wokłon</text>
   <text systemLanguage="en" >Astronomical Horizon</text>
   <text systemLanguage="fr" >Horizon Astronomique</text>
   <text systemLanguage="he" >האופק השמימי</text>
   <text systemLanguage="hsb">Astronomiski wobzor</text>
   <text systemLanguage="hy" >Աստղագիտական հորիզոն</text>
   <text systemLanguage="ka" >ჭეშმარიტი (მათემატიკური) ჰორიზონტი</text>
   <text systemLanguage="ko" >지평선 (천문학)</text>
   <text systemLanguage="mk" >Астрономски хоризонт</text>
   <text systemLanguage="ru" >Астрономический горизонт</text>
   <text systemLanguage="sr" >Астрономски хоризонт</text>
   <text systemLanguage="tr" >Astronomik Ufuk</text>
   <text systemLanguage="xmf">ჭეშმარიტი (მათემატიკური) ჰორიზონტი</text>
   <text                     >Astronomical Horizon</text>
  </switch>
  <switch transform="rotate(-41.8,542,-48.1)">
   <text systemLanguage="ar" >الأفق الحقيقي</text>
   <text systemLanguage="bn" >প্রকৃত দিগন্ত</text>
   <text systemLanguage="bxr">Хараанай тэнгэриин хаяа</text>
   <text systemLanguage="cs" >Pravý obzor</text>
   <text systemLanguage="dsb">Pšawy wokłon</text>
   <text systemLanguage="en" >True Horizon</text>
   <text systemLanguage="fr" >Horizon terrestre optique</text>
   <text systemLanguage="he" >האופק האמיתי</text>
   <text systemLanguage="hsb">Prawy wobzor</text>
   <text systemLanguage="hy" >Իսկական հորիզոն</text>
   <text systemLanguage="ka" >ხილული ჰორიზონტი</text>
   <text systemLanguage="ko" >지평선 (사실)</text>
   <text systemLanguage="mk" >Вистински хоризонт</text>
   <text systemLanguage="ru" >Видимый горизонт</text>
   <text systemLanguage="sr" >Прави хоризонт</text>
   <text systemLanguage="tr" >Gerçek Ufuk</text>
   <text systemLanguage="xmf">ხილული ჰორიზონტი</text>
   <text                     >True Horizon</text>
  </switch>
 </g>
</svg>
